<?xml version="1.0" standalone="no"?>
<!DOCTYPE svg PUBLIC "-//W3C//DTD SVG 20010904//EN"
 "http://www.w3.org/TR/2001/REC-SVG-20010904/DTD/svg10.dtd">
<svg version="1.0" xmlns="http://www.w3.org/2000/svg"
 width="16.000000pt" height="16.000000pt" viewBox="0 0 16.000000 16.000000"
 preserveAspectRatio="xMidYMid meet">

<g transform="translate(0.000000,16.000000) scale(0.100000,-0.100000)"
fill="#000000" stroke="none">
<path d="M18 85 c5 -27 22 -35 22 -10 0 8 5 15 10 15 6 0 10 -7 10 -15 0 -8 5
-15 10 -15 11 0 13 11 4 34 -4 9 -18 16 -34 16 -24 0 -27 -3 -22 -25z"/>
<path d="M88 83 c6 -30 18 -29 24 1 4 18 1 24 -12 23 -12 -1 -15 -8 -12 -24z"/>
<path d="M128 63 c7 -3 16 -2 19 1 4 3 -2 6 -13 5 -11 0 -14 -3 -6 -6z"/>
</g>
</svg>
