<svg width="500" height="500" version="1.1" xmlns="http://www.w3.org/2000/svg" desc="Created with imagetracer.js version 1.2.6" ><path fill="rgb(200,117,0)" stroke="rgb(200,117,0)" stroke-width="1" opacity="1" d="M 355.5 166 L 365 166.5 L 355.5 167 L 355.5 166 Z " /><path fill="rgb(200,117,0)" stroke="rgb(200,117,0)" stroke-width="1" opacity="1" d="M 25.5 169 L 36 169.5 L 25.5 170 L 25.5 169 Z " /><path fill="rgb(200,117,0)" stroke="rgb(200,117,0)" stroke-width="1" opacity="1" d="M 141.5 169 L 153 169 L 153 174.5 L 152 174.5 L 152 170 L 141.5 170 L 141.5 169 Z " /><path fill="rgb(200,117,0)" stroke="rgb(200,117,0)" stroke-width="1" opacity="1" d="M 156.5 169 L 162 169.5 L 156.5 170 L 156.5 169 Z " /><path fill="rgb(200,117,0)" stroke="rgb(200,117,0)" stroke-width="1" opacity="1" d="M 209.5 169 L 218 169.5 L 209.5 170 L 209.5 169 Z " /><path fill="rgb(200,117,0)" stroke="rgb(200,117,0)" stroke-width="1" opacity="1" d="M 243.5 169 L 244 173.5 L 243 173.5 L 243.5 169 Z " /><path fill="rgb(200,117,0)" stroke="rgb(200,117,0)" stroke-width="1" opacity="1" d="M 246.5 169 L 258 169.5 L 246.5 170 L 246.5 169 Z " /><path fill="rgb(200,117,0)" stroke="rgb(200,117,0)" stroke-width="1" opacity="1" d="M 278.5 169 L 284 169.5 L 278.5 170 L 278.5 169 Z " /><path fill="rgb(200,117,0)" stroke="rgb(200,117,0)" stroke-width="1" opacity="1" d="M 285.5 169 L 286 173.5 L 285 173.5 L 285.5 169 Z " /><path fill="rgb(200,117,0)" stroke="rgb(200,117,0)" stroke-width="1" opacity="1" d="M 408.5 169 L 413 169.5 L 408 170 L 407.5 173 L 407 170.5 L 408.5 169 Z " /><path fill="rgb(200,117,0)" stroke="rgb(200,117,0)" stroke-width="1" opacity="1" d="M 360.5 172 L 365 172.5 L 360.5 173 L 360.5 172 Z " /><path fill="rgb(200,117,0)" stroke="rgb(200,117,0)" stroke-width="1" opacity="1" d="M 366.5 172 L 371 172.5 L 366.5 173 L 366.5 172 Z " /><path fill="rgb(200,117,0)" stroke="rgb(200,117,0)" stroke-width="1" opacity="1" d="M 412.5 173 L 413 186.5 L 412 186.5 L 412.5 173 Z " /><path fill="rgb(200,117,0)" stroke="rgb(200,117,0)" stroke-width="1" opacity="1" d="M 64.5 174 L 72 174.5 L 64.5 175 L 64.5 174 Z " /><path fill="rgb(200,117,0)" stroke="rgb(200,117,0)" stroke-width="1" opacity="1" d="M 105 174 L 113 174.5 L 106 175 L 105.5 299 L 105 174 Z " /><path fill="rgb(200,117,0)" stroke="rgb(200,117,0)" stroke-width="1" opacity="1" d="M 210.5 174 L 213 174.5 L 210.5 175 L 210.5 174 Z " /><path fill="rgb(200,117,0)" stroke="rgb(200,117,0)" stroke-width="1" opacity="1" d="M 283.5 174 L 282.5 176 L 283.5 174 Z " /><path fill="rgb(200,117,0)" stroke="rgb(200,117,0)" stroke-width="1" opacity="1" d="M 160.5 175 L 164.5 180 L 160.5 175 Z " /><path fill="rgb(200,117,0)" stroke="rgb(200,117,0)" stroke-width="1" opacity="1" d="M 392.5 175 L 393.5 177 L 392.5 175 Z " /><path fill="rgb(200,117,0)" stroke="rgb(200,117,0)" stroke-width="1" opacity="1" d="M 279.5 177 L 276.5 181 L 279.5 177 Z " /><path fill="rgb(200,117,0)" stroke="rgb(200,117,0)" stroke-width="1" opacity="1" d="M 395.5 177 L 396.5 179 L 395.5 177 Z " /><path fill="rgb(200,117,0)" stroke="rgb(200,117,0)" stroke-width="1" opacity="1" d="M 25.5 178 L 26 185.5 L 25 185.5 L 25.5 178 Z " /><path fill="rgb(200,117,0)" stroke="rgb(200,117,0)" stroke-width="1" opacity="1" d="M 345.5 178 L 343.5 181 L 345.5 178 Z " /><path fill="rgb(200,117,0)" stroke="rgb(200,117,0)" stroke-width="1" opacity="1" d="M 127.5 179 L 128.5 181 L 127.5 179 Z " /><path fill="rgb(200,117,0)" stroke="rgb(200,117,0)" stroke-width="1" opacity="1" d="M 317.5 179 L 316.5 181 L 317.5 179 Z " /><path fill="rgb(200,117,0)" stroke="rgb(200,117,0)" stroke-width="1" opacity="1" d="M 48.5 180 L 44.5 185 L 48.5 180 Z " /><path fill="rgb(200,117,0)" stroke="rgb(200,117,0)" stroke-width="1" opacity="1" d="M 389.5 180 L 391.5 183 L 389.5 180 Z " /><path fill="rgb(200,117,0)" stroke="rgb(200,117,0)" stroke-width="1" opacity="1" d="M 313.5 182 L 310.5 186 L 313.5 182 Z " /><path fill="rgb(200,117,0)" stroke="rgb(200,117,0)" stroke-width="1" opacity="1" d="M 341.5 182 L 339.5 185 L 341.5 182 Z " /><path fill="rgb(200,117,0)" stroke="rgb(200,117,0)" stroke-width="1" opacity="1" d="M 260.5 183 L 261 185.5 L 260 185.5 L 260.5 183 Z " /><path fill="rgb(200,117,0)" stroke="rgb(200,117,0)" stroke-width="1" opacity="1" d="M 274.5 183 L 273.5 185 L 274.5 183 Z " /><path fill="rgb(200,117,0)" stroke="rgb(200,117,0)" stroke-width="1" opacity="1" d="M 133.5 185 L 134.5 187 L 133.5 185 Z " /><path fill="rgb(200,117,0)" stroke="rgb(200,117,0)" stroke-width="1" opacity="1" d="M 151.5 186 L 152 197.5 L 151 197.5 L 151.5 186 Z " /><path fill="rgb(200,117,0)" stroke="rgb(200,117,0)" stroke-width="1" opacity="1" d="M 396.5 187 L 397.5 189 L 396.5 187 Z " /><path fill="rgb(200,117,0)" stroke="rgb(200,117,0)" stroke-width="1" opacity="1" d="M 260.5 188 L 261 191.5 L 260 191.5 L 260.5 188 Z " /><path fill="rgb(200,117,0)" stroke="rgb(200,117,0)" stroke-width="1" opacity="1" d="M 307.5 188 L 304.5 192 L 307.5 188 Z " /><path fill="rgb(200,117,0)" stroke="rgb(200,117,0)" stroke-width="1" opacity="1" d="M 302.5 194 L 301.5 196 L 302.5 194 Z " /><path fill="rgb(200,117,0)" stroke="rgb(200,117,0)" stroke-width="1" opacity="1" d="M 151.5 210 L 152 218.5 L 151 218.5 L 151.5 210 Z " /><path fill="rgb(200,117,0)" stroke="rgb(200,117,0)" stroke-width="1" opacity="1" d="M 406.5 215 L 407 217.5 L 406 217.5 L 406.5 215 Z " /><path fill="rgb(200,117,0)" stroke="rgb(200,117,0)" stroke-width="1" opacity="1" d="M 25.5 219 L 31 220.5 L 26.5 221 L 25.5 219 Z " /><path fill="rgb(200,117,0)" stroke="rgb(200,117,0)" stroke-width="1" opacity="1" d="M 146.5 219 L 152 220.5 L 147.5 221 L 146.5 219 Z " /><path fill="rgb(200,117,0)" stroke="rgb(200,117,0)" stroke-width="1" opacity="1" d="M 325.5 223 L 326 225.5 L 325 225.5 L 325.5 223 Z " /><path fill="rgb(200,117,0)" stroke="rgb(200,117,0)" stroke-width="1" opacity="1" d="M 324.5 233 L 325 252.5 L 324 252.5 L 324.5 233 Z " /><path fill="rgb(200,117,0)" stroke="rgb(200,117,0)" stroke-width="1" opacity="1" d="M 287.5 234 L 288 239.5 L 287 239.5 L 287.5 234 Z " /><path fill="rgb(200,117,0)" stroke="rgb(200,117,0)" stroke-width="1" opacity="1" d="M 237.5 243 L 236.5 245 L 237.5 243 Z " /><path fill="rgb(200,117,0)" stroke="rgb(200,117,0)" stroke-width="1" opacity="1" d="M 287.5 248 L 288 254.5 L 287 254.5 L 287.5 248 Z " /><path fill="rgb(200,117,0)" stroke="rgb(200,117,0)" stroke-width="1" opacity="1" d="M 288.5 259 L 289 261.5 L 288 261.5 L 288.5 259 Z " /><path fill="rgb(200,117,0)" stroke="rgb(200,117,0)" stroke-width="1" opacity="1" d="M 325.5 260 L 326 262.5 L 325 262.5 L 325.5 260 Z " /><path fill="rgb(200,117,0)" stroke="rgb(200,117,0)" stroke-width="1" opacity="1" d="M 408.5 263 L 411 263.5 L 408.5 264 L 408.5 263 Z " /><path fill="rgb(200,117,0)" stroke="rgb(200,117,0)" stroke-width="1" opacity="1" d="M 406.5 266 L 407 268.5 L 406 268.5 L 406.5 266 Z " /><path fill="rgb(200,117,0)" stroke="rgb(200,117,0)" stroke-width="1" opacity="1" d="M 464.5 290 L 466.5 293 L 464.5 290 Z " /><path fill="rgb(200,117,0)" stroke="rgb(200,117,0)" stroke-width="1" opacity="1" d="M 301.5 292 L 302.5 294 L 301.5 292 Z " /><path fill="rgb(200,117,0)" stroke="rgb(200,117,0)" stroke-width="1" opacity="1" d="M 399.5 295 L 398.5 297 L 399.5 295 Z " /><path fill="rgb(200,117,0)" stroke="rgb(200,117,0)" stroke-width="1" opacity="1" d="M 241.5 296 L 242 301.5 L 241 301.5 L 241.5 296 Z " /><path fill="rgb(200,117,0)" stroke="rgb(200,117,0)" stroke-width="1" opacity="1" d="M 304.5 296 L 310.5 303 L 304.5 296 Z " /><path fill="rgb(200,117,0)" stroke="rgb(200,117,0)" stroke-width="1" opacity="1" d="M 412.5 298 L 413 311.5 L 412 311.5 L 412.5 298 Z " /><path fill="rgb(200,117,0)" stroke="rgb(200,117,0)" stroke-width="1" opacity="1" d="M 71.5 299 L 72 301.5 L 71 301.5 L 71.5 299 Z " /><path fill="rgb(200,117,0)" stroke="rgb(200,117,0)" stroke-width="1" opacity="1" d="M 395.5 300 L 394.5 302 L 395.5 300 Z " /><path fill="rgb(200,117,0)" stroke="rgb(200,117,0)" stroke-width="1" opacity="1" d="M 434.5 300 L 435 305.5 L 434 305.5 L 434.5 300 Z " /><path fill="rgb(200,117,0)" stroke="rgb(200,117,0)" stroke-width="1" opacity="1" d="M 207.5 301 L 208 303.5 L 207 303.5 L 207.5 301 Z " /><path fill="rgb(200,117,0)" stroke="rgb(200,117,0)" stroke-width="1" opacity="1" d="M 313.5 304 L 314.5 306 L 313.5 304 Z " /><path fill="rgb(200,117,0)" stroke="rgb(200,117,0)" stroke-width="1" opacity="1" d="M 390.5 304 L 388.5 307 L 390.5 304 Z " /><path fill="rgb(200,117,0)" stroke="rgb(200,117,0)" stroke-width="1" opacity="1" d="M 404.5 304 L 405.5 306 L 404.5 304 Z " /><path fill="rgb(200,117,0)" stroke="rgb(200,117,0)" stroke-width="1" opacity="1" d="M 69.5 306 L 67.5 309 L 69.5 306 Z " /><path fill="rgb(200,117,0)" stroke="rgb(200,117,0)" stroke-width="1" opacity="1" d="M 243.5 307 L 245.5 310 L 243.5 307 Z " /><path fill="rgb(200,117,0)" stroke="rgb(200,117,0)" stroke-width="1" opacity="1" d="M 346.5 307 L 347.5 309 L 346.5 307 Z " /><path fill="rgb(200,117,0)" stroke="rgb(200,117,0)" stroke-width="1" opacity="1" d="M 392.5 309 L 391.5 311 L 392.5 309 Z " /><path fill="rgb(200,117,0)" stroke="rgb(200,117,0)" stroke-width="1" opacity="1" d="M 50.5 311 L 57 311.5 L 50.5 312 L 50.5 311 Z " /><path fill="rgb(200,117,0)" stroke="rgb(200,117,0)" stroke-width="1" opacity="1" d="M 120.5 311 Q 126.5 309.5 128 312.5 L 127.5 316 L 127 312 L 120.5 312 L 120.5 311 Z " /><path fill="rgb(200,117,0)" stroke="rgb(200,117,0)" stroke-width="1" opacity="1" d="M 193.5 311 L 197 311.5 L 193 312 L 192.5 316 L 192 312.5 L 193.5 311 Z " /><path fill="rgb(200,117,0)" stroke="rgb(200,117,0)" stroke-width="1" opacity="1" d="M 252.5 311 L 256 311.5 L 252.5 312 L 252.5 311 Z " /><path fill="rgb(200,117,0)" stroke="rgb(200,117,0)" stroke-width="1" opacity="1" d="M 407.5 312 L 408 315.5 L 407 315.5 L 407.5 312 Z " /><path fill="rgb(200,117,0)" stroke="rgb(200,117,0)" stroke-width="1" opacity="1" d="M 360.5 313 L 365 313.5 L 360.5 314 L 360.5 313 Z " /><path fill="rgb(200,117,0)" stroke="rgb(200,117,0)" stroke-width="1" opacity="1" d="M 367.5 313 L 372 313.5 L 367.5 314 L 367.5 313 Z " /><path fill="rgb(200,117,0)" stroke="rgb(200,117,0)" stroke-width="1" opacity="1" d="M 466.5 313 L 464.5 316 L 466.5 313 Z " /><path fill="rgb(200,117,0)" stroke="rgb(200,117,0)" stroke-width="1" opacity="1" d="M 74.5 315 L 103 315.5 L 74.5 316 L 74.5 315 Z " /><path fill="rgb(200,117,0)" stroke="rgb(200,117,0)" stroke-width="1" opacity="1" d="M 207.5 315 L 241 315.5 L 207.5 316 L 207.5 315 Z " /><path fill="rgb(200,117,0)" stroke="rgb(200,117,0)" stroke-width="1" opacity="1" d="M 348.5 318 L 352 318.5 L 348.5 319 L 348.5 318 Z " /><path fill="rgb(200,117,0)" stroke="rgb(200,117,0)" stroke-width="1" opacity="1" d="M 368.5 318 L 371 318.5 L 368.5 319 L 368.5 318 Z " /><path fill="rgb(255,150,0)" stroke="rgb(255,150,0)" stroke-width="1" opacity="1" d="M 0 0 L 500 0 L 500 500 L 0 500 L 0 0 Z M 356 166 L 333 171 L 314 182 Q 303 191 296 204 L 290 219 L 287 235 L 287 255 L 290 271 Q 295 286 304 297 L 321 310 L 335 316 L 349 319 L 371 319 L 376 318 L 404 304 L 407 310 L 407 316 L 413 316 L 413 299 L 412 298 L 412 265 L 409 263 L 406 267 L 406 274 L 403 288 L 398 298 L 387 308 L 375 313 Q 368 311 367 314 L 355 312 L 346 307 Q 336 300 332 288 L 327 272 L 326 261 L 325 260 L 325 227 L 328 210 Q 332 192 342 181 L 354 174 L 365 173 L 366 172 L 381 175 L 393 183 Q 399 189 403 199 L 407 219 L 407 220 L 412 220 L 412 188 L 413 187 L 413 170 Q 413 168 409 169 L 407 171 Q 408 178 405 181 L 403 182 L 381 169 L 365 166 L 356 166 Z M 25 169 L 25 186 L 26 187 L 26 219 L 25 220 Q 26 222 31 221 Q 33 201 43 187 Q 50 173 72 175 L 72 299 L 70 306 Q 67 310 62 311 L 50 311 L 50 316 L 128 316 L 128 313 L 127 311 Q 116 312 111 309 L 106 303 L 106 175 Q 122 174 130 181 Q 137 188 141 199 L 145 212 L 146 220 Q 147 222 152 221 L 152 211 L 151 210 L 152 176 L 153 169 L 142 169 L 141 170 L 37 170 L 36 169 L 25 169 Z M 156 169 L 156 174 L 160 175 L 169 187 L 208 260 L 208 301 L 206 308 Q 203 312 194 311 Q 191 312 192 316 L 257 316 L 257 313 L 256 311 L 247 310 L 242 305 L 242 297 L 241 296 L 241 247 L 266 197 L 275 183 L 285 174 L 286 174 L 286 169 L 279 169 L 278 170 L 259 170 L 258 169 L 243 169 L 243 174 L 249 174 L 258 178 L 261 187 L 260 195 L 257 204 L 237 244 L 204 182 L 204 179 L 209 175 L 214 174 L 220 174 L 220 169 L 210 169 L 209 170 L 163 170 L 156 169 Z M 447 287 L 442 289 Q 435 292 434 301 L 434 306 L 436 312 Q 439 317 447 319 Q 459 321 465 316 L 470 308 Q 472 297 467 293 L 459 287 L 447 287 Z " /><path fill="rgb(58,34,0)" stroke="rgb(58,34,0)" stroke-width="1" opacity="1" d="M 349.5 167 L 353 167.5 L 349.5 168 L 349.5 167 Z " /><path fill="rgb(58,34,0)" stroke="rgb(58,34,0)" stroke-width="1" opacity="1" d="M 368.5 167 L 371 167.5 L 368.5 168 L 368.5 167 Z " /><path fill="rgb(58,34,0)" stroke="rgb(58,34,0)" stroke-width="1" opacity="1" d="M 218.5 169 L 220 172.5 Q 219.3 174.8 215.5 174 L 215.5 173 Q 220.3 174.7 219 170.5 L 218.5 169 Z " /><path fill="rgb(58,34,0)" stroke="rgb(58,34,0)" stroke-width="1" opacity="1" d="M 52.5 170 L 126 170.5 L 52.5 171 L 52.5 170 Z " /><path fill="rgb(58,34,0)" stroke="rgb(58,34,0)" stroke-width="1" opacity="1" d="M 156.5 170 L 157 173.5 L 156 173.5 L 156.5 170 Z " /><path fill="rgb(58,34,0)" stroke="rgb(58,34,0)" stroke-width="1" opacity="1" d="M 165.5 170 L 203 170.5 L 165.5 171 L 165.5 170 Z " /><path fill="rgb(58,34,0)" stroke="rgb(58,34,0)" stroke-width="1" opacity="1" d="M 412.5 170 L 413 172.5 L 412 172.5 L 412.5 170 Z " /><path fill="rgb(58,34,0)" stroke="rgb(58,34,0)" stroke-width="1" opacity="1" d="M 25.5 172 L 26 177.5 L 25 177.5 L 25.5 172 Z " /><path fill="rgb(58,34,0)" stroke="rgb(58,34,0)" stroke-width="1" opacity="1" d="M 357.5 172 L 360 172.5 L 357.5 173 L 357.5 172 Z " /><path fill="rgb(58,34,0)" stroke="rgb(58,34,0)" stroke-width="1" opacity="1" d="M 244.5 173 L 248 173.5 L 244.5 174 L 244.5 173 Z " /><path fill="rgb(58,34,0)" stroke="rgb(58,34,0)" stroke-width="1" opacity="1" d="M 61.5 174 L 64 174.5 L 61.5 175 L 61.5 174 Z " /><path fill="rgb(58,34,0)" stroke="rgb(58,34,0)" stroke-width="1" opacity="1" d="M 72.5 174 L 73 296.5 L 72 296.5 L 72.5 174 Z " /><path fill="rgb(58,34,0)" stroke="rgb(58,34,0)" stroke-width="1" opacity="1" d="M 113.5 174 L 116 174.5 L 113.5 175 L 113.5 174 Z " /><path fill="rgb(58,34,0)" stroke="rgb(58,34,0)" stroke-width="1" opacity="1" d="M 254.5 175 L 255.5 177 L 254.5 175 Z " /><path fill="rgb(58,34,0)" stroke="rgb(58,34,0)" stroke-width="1" opacity="1" d="M 281.5 175 L 280.5 177 L 281.5 175 Z " /><path fill="rgb(58,34,0)" stroke="rgb(58,34,0)" stroke-width="1" opacity="1" d="M 257.5 177 L 258.5 179 L 257.5 177 Z " /><path fill="rgb(58,34,0)" stroke="rgb(58,34,0)" stroke-width="1" opacity="1" d="M 50.5 178 L 49.5 180 L 50.5 178 Z " /><path fill="rgb(58,34,0)" stroke="rgb(58,34,0)" stroke-width="1" opacity="1" d="M 151.5 178 L 152 185.5 L 151 185.5 L 151.5 178 Z " /><path fill="rgb(58,34,0)" stroke="rgb(58,34,0)" stroke-width="1" opacity="1" d="M 319.5 178 L 318.5 180 L 319.5 178 Z " /><path fill="rgb(58,34,0)" stroke="rgb(58,34,0)" stroke-width="1" opacity="1" d="M 387.5 178 L 388.5 180 L 387.5 178 Z " /><path fill="rgb(58,34,0)" stroke="rgb(58,34,0)" stroke-width="1" opacity="1" d="M 343.5 179 L 340.5 183 L 343.5 179 Z " /><path fill="rgb(58,34,0)" stroke="rgb(58,34,0)" stroke-width="1" opacity="1" d="M 397.5 179 L 398.5 181 L 397.5 179 Z " /><path fill="rgb(58,34,0)" stroke="rgb(58,34,0)" stroke-width="1" opacity="1" d="M 129.5 180 L 133.5 185 L 129.5 180 Z " /><path fill="rgb(58,34,0)" stroke="rgb(58,34,0)" stroke-width="1" opacity="1" d="M 405.5 180 L 404.5 182 L 405.5 180 Z " /><path fill="rgb(58,34,0)" stroke="rgb(58,34,0)" stroke-width="1" opacity="1" d="M 275.5 181 L 274.5 183 L 275.5 181 Z " /><path fill="rgb(58,34,0)" stroke="rgb(58,34,0)" stroke-width="1" opacity="1" d="M 315.5 181 L 314.5 183 L 315.5 181 Z " /><path fill="rgb(58,34,0)" stroke="rgb(58,34,0)" stroke-width="1" opacity="1" d="M 392.5 182 L 396.5 187 L 392.5 182 Z " /><path fill="rgb(58,34,0)" stroke="rgb(58,34,0)" stroke-width="1" opacity="1" d="M 43.5 185 L 42.5 187 L 43.5 185 Z " /><path fill="rgb(58,34,0)" stroke="rgb(58,34,0)" stroke-width="1" opacity="1" d="M 272.5 185 L 271.5 187 L 272.5 185 Z " /><path fill="rgb(58,34,0)" stroke="rgb(58,34,0)" stroke-width="1" opacity="1" d="M 338.5 185 L 337.5 187 L 338.5 185 Z " /><path fill="rgb(58,34,0)" stroke="rgb(58,34,0)" stroke-width="1" opacity="1" d="M 309.5 186 L 308.5 188 L 309.5 186 Z " /><path fill="rgb(58,34,0)" stroke="rgb(58,34,0)" stroke-width="1" opacity="1" d="M 41.5 188 L 40.5 190 L 41.5 188 Z " /><path fill="rgb(58,34,0)" stroke="rgb(58,34,0)" stroke-width="1" opacity="1" d="M 336.5 188 L 335.5 190 L 336.5 188 Z " /><path fill="rgb(58,34,0)" stroke="rgb(58,34,0)" stroke-width="1" opacity="1" d="M 398.5 189 L 399.5 191 L 398.5 189 Z " /><path fill="rgb(58,34,0)" stroke="rgb(58,34,0)" stroke-width="1" opacity="1" d="M 26.5 191 L 27 215.5 L 26 215.5 L 26.5 191 Z " /><path fill="rgb(58,34,0)" stroke="rgb(58,34,0)" stroke-width="1" opacity="1" d="M 304.5 192 L 303.5 194 L 304.5 192 Z " /><path fill="rgb(58,34,0)" stroke="rgb(58,34,0)" stroke-width="1" opacity="1" d="M 301.5 196 L 300.5 198 L 301.5 196 Z " /><path fill="rgb(58,34,0)" stroke="rgb(58,34,0)" stroke-width="1" opacity="1" d="M 411.5 204 L 412 220 L 407 219.5 L 411 219 L 411.5 204 Z " /><path fill="rgb(58,34,0)" stroke="rgb(58,34,0)" stroke-width="1" opacity="1" d="M 406.5 212 L 407 214.5 L 406 214.5 L 406.5 212 Z " /><path fill="rgb(58,34,0)" stroke="rgb(58,34,0)" stroke-width="1" opacity="1" d="M 325.5 220 L 326 222.5 L 325 222.5 L 325.5 220 Z " /><path fill="rgb(58,34,0)" stroke="rgb(58,34,0)" stroke-width="1" opacity="1" d="M 324.5 228 L 325 232.5 L 324 232.5 L 324.5 228 Z " /><path fill="rgb(58,34,0)" stroke="rgb(58,34,0)" stroke-width="1" opacity="1" d="M 288.5 229 L 289 231.5 L 288 231.5 L 288.5 229 Z " /><path fill="rgb(58,34,0)" stroke="rgb(58,34,0)" stroke-width="1" opacity="1" d="M 287.5 240 L 288 247.5 L 287 247.5 L 287.5 240 Z " /><path fill="rgb(58,34,0)" stroke="rgb(58,34,0)" stroke-width="1" opacity="1" d="M 324.5 253 L 325 257.5 L 324 257.5 L 324.5 253 Z " /><path fill="rgb(58,34,0)" stroke="rgb(58,34,0)" stroke-width="1" opacity="1" d="M 288.5 256 L 289 258.5 L 288 258.5 L 288.5 256 Z " /><path fill="rgb(58,34,0)" stroke="rgb(58,34,0)" stroke-width="1" opacity="1" d="M 208.5 259 L 209 297.5 L 208 297.5 L 208.5 259 Z " /><path fill="rgb(58,34,0)" stroke="rgb(58,34,0)" stroke-width="1" opacity="1" d="M 325.5 263 L 326 265.5 L 325 265.5 L 325.5 263 Z " /><path fill="rgb(58,34,0)" stroke="rgb(58,34,0)" stroke-width="1" opacity="1" d="M 411.5 264 L 412 280.5 L 411 280.5 L 411.5 264 Z " /><path fill="rgb(58,34,0)" stroke="rgb(58,34,0)" stroke-width="1" opacity="1" d="M 406.5 269 L 407 271.5 L 406 271.5 L 406.5 269 Z " /><path fill="rgb(58,34,0)" stroke="rgb(58,34,0)" stroke-width="1" opacity="1" d="M 405.5 276 L 406 278.5 L 405 278.5 L 405.5 276 Z " /><path fill="rgb(58,34,0)" stroke="rgb(58,34,0)" stroke-width="1" opacity="1" d="M 447.5 287 L 451 287.5 L 447.5 288 L 447.5 287 Z " /><path fill="rgb(58,34,0)" stroke="rgb(58,34,0)" stroke-width="1" opacity="1" d="M 454.5 287 L 457 287.5 L 454.5 288 L 454.5 287 Z " /><path fill="rgb(58,34,0)" stroke="rgb(58,34,0)" stroke-width="1" opacity="1" d="M 300.5 290 L 301.5 292 L 300.5 290 Z " /><path fill="rgb(58,34,0)" stroke="rgb(58,34,0)" stroke-width="1" opacity="1" d="M 440.5 290 L 437.5 294 L 440.5 290 Z " /><path fill="rgb(58,34,0)" stroke="rgb(58,34,0)" stroke-width="1" opacity="1" d="M 466.5 293 L 467.5 295 L 466.5 293 Z " /><path fill="rgb(58,34,0)" stroke="rgb(58,34,0)" stroke-width="1" opacity="1" d="M 303.5 294 L 305.5 297 L 303.5 294 Z " /><path fill="rgb(58,34,0)" stroke="rgb(58,34,0)" stroke-width="1" opacity="1" d="M 336.5 297 L 337.5 299 L 336.5 297 Z " /><path fill="rgb(58,34,0)" stroke="rgb(58,34,0)" stroke-width="1" opacity="1" d="M 398.5 297 L 396.5 300 L 398.5 297 Z " /><path fill="rgb(58,34,0)" stroke="rgb(58,34,0)" stroke-width="1" opacity="1" d="M 105.5 299 L 106 301.5 L 105 301.5 L 105.5 299 Z " /><path fill="rgb(58,34,0)" stroke="rgb(58,34,0)" stroke-width="1" opacity="1" d="M 469.5 300 L 470 305.5 L 469 305.5 L 469.5 300 Z " /><path fill="rgb(58,34,0)" stroke="rgb(58,34,0)" stroke-width="1" opacity="1" d="M 310.5 301 L 312.5 304 L 310.5 301 Z " /><path fill="rgb(58,34,0)" stroke="rgb(58,34,0)" stroke-width="1" opacity="1" d="M 339.5 301 L 341.5 304 L 339.5 301 Z " /><path fill="rgb(58,34,0)" stroke="rgb(58,34,0)" stroke-width="1" opacity="1" d="M 393.5 302 L 390.5 306 L 393.5 302 Z " /><path fill="rgb(58,34,0)" stroke="rgb(58,34,0)" stroke-width="1" opacity="1" d="M 315.5 305 L 316.5 307 L 315.5 305 Z " /><path fill="rgb(58,34,0)" stroke="rgb(58,34,0)" stroke-width="1" opacity="1" d="M 343.5 305 L 345.5 308 L 343.5 305 Z " /><path fill="rgb(58,34,0)" stroke="rgb(58,34,0)" stroke-width="1" opacity="1" d="M 107.5 306 L 110.5 310 L 107.5 306 Z " /><path fill="rgb(58,34,0)" stroke="rgb(58,34,0)" stroke-width="1" opacity="1" d="M 396.5 306 L 395.5 308 L 396.5 306 Z " /><path fill="rgb(58,34,0)" stroke="rgb(58,34,0)" stroke-width="1" opacity="1" d="M 206.5 307 L 204.5 310 L 206.5 307 Z " /><path fill="rgb(58,34,0)" stroke="rgb(58,34,0)" stroke-width="1" opacity="1" d="M 318.5 307 L 319.5 309 L 318.5 307 Z " /><path fill="rgb(58,34,0)" stroke="rgb(58,34,0)" stroke-width="1" opacity="1" d="M 387.5 307 L 386.5 309 L 387.5 307 Z " /><path fill="rgb(58,34,0)" stroke="rgb(58,34,0)" stroke-width="1" opacity="1" d="M 243.5 308 L 244.5 310 L 243.5 308 Z " /><path fill="rgb(58,34,0)" stroke="rgb(58,34,0)" stroke-width="1" opacity="1" d="M 57.5 311 L 61 311.5 L 57.5 312 L 57.5 311 Z " /><path fill="rgb(58,34,0)" stroke="rgb(58,34,0)" stroke-width="1" opacity="1" d="M 117.5 311 L 120 311.5 L 117.5 312 L 117.5 311 Z " /><path fill="rgb(58,34,0)" stroke="rgb(58,34,0)" stroke-width="1" opacity="1" d="M 467.5 311 L 466.5 313 L 467.5 311 Z " /><path fill="rgb(58,34,0)" stroke="rgb(58,34,0)" stroke-width="1" opacity="1" d="M 50.5 312 L 51 315.5 L 50 315.5 L 50.5 312 Z " /><path fill="rgb(58,34,0)" stroke="rgb(58,34,0)" stroke-width="1" opacity="1" d="M 256.5 312 L 257 315.5 L 256 315.5 L 256.5 312 Z " /><path fill="rgb(58,34,0)" stroke="rgb(58,34,0)" stroke-width="1" opacity="1" d="M 412.5 312 L 413 315.5 L 412 315.5 L 412.5 312 Z " /><path fill="rgb(58,34,0)" stroke="rgb(58,34,0)" stroke-width="1" opacity="1" d="M 437.5 312 L 440.5 316 L 437.5 312 Z " /><path fill="rgb(58,34,0)" stroke="rgb(58,34,0)" stroke-width="1" opacity="1" d="M 54.5 315 L 74 315.5 L 54.5 316 L 54.5 315 Z " /><path fill="rgb(58,34,0)" stroke="rgb(58,34,0)" stroke-width="1" opacity="1" d="M 103.5 315 L 123 315.5 L 103.5 316 L 103.5 315 Z " /><path fill="rgb(58,34,0)" stroke="rgb(58,34,0)" stroke-width="1" opacity="1" d="M 194.5 315 L 207 315.5 L 194.5 316 L 194.5 315 Z " /><path fill="rgb(58,34,0)" stroke="rgb(58,34,0)" stroke-width="1" opacity="1" d="M 241.5 315 L 255 315.5 L 241.5 316 L 241.5 315 Z " /><path fill="rgb(58,34,0)" stroke="rgb(58,34,0)" stroke-width="1" opacity="1" d="M 344.5 317 L 347 317.5 L 344.5 318 L 344.5 317 Z " /><path fill="rgb(58,34,0)" stroke="rgb(58,34,0)" stroke-width="1" opacity="1" d="M 352.5 318 L 368 318.5 L 352.5 319 L 352.5 318 Z " /><path fill="rgb(58,34,0)" stroke="rgb(58,34,0)" stroke-width="1" opacity="1" d="M 448.5 318 L 457 318.5 L 448.5 319 L 448.5 318 Z " /><path fill="rgb(0,0,0)" stroke="rgb(0,0,0)" stroke-width="1" opacity="1" d="M 353.5 167 L 367.5 167 L 377.5 169 Q 391.2 173.3 400.5 182 L 404.5 182 L 407 178.5 L 408 170 L 412 170.5 L 412 203.5 L 411 204.5 L 411 219 L 407 219 L 407 212.5 L 403 196.5 Q 399.4 187.6 392.5 182 Q 386.1 175.9 376.5 173 Q 369 170.5 357.5 172 Q 346.4 174.9 340 182.5 L 333 193.5 L 327 210.5 L 325 220.5 L 325 227.5 L 324 228.5 L 324 257.5 L 325 258.5 L 326 270.5 L 331 287.5 Q 335.8 300.2 345.5 308 L 358.5 314 L 373.5 314 Q 390.5 310 399 297.5 L 405 283.5 L 407 264 L 411 264.5 L 411 280.5 L 412 281.5 L 412 316 Q 405.6 318.3 408 310.5 L 407 306.5 L 403.5 303 L 376.5 317 L 371.5 318 L 347.5 318 L 328.5 313 Q 315.3 307.2 306 297.5 Q 295.8 286.7 291 270.5 L 288 255.5 L 288 232.5 L 291 217.5 L 298 201.5 Q 304.3 190.8 313.5 183 L 329.5 173 L 337.5 170 L 353.5 167 Z " /><path fill="rgb(0,0,0)" stroke="rgb(0,0,0)" stroke-width="1" opacity="1" d="M 25 170 L 51.5 170 L 52.5 171 L 125.5 171 L 126.5 170 L 152 170 L 152 177.5 L 151 178.5 L 151 220 Q 145.8 222.1 147 217.5 L 141 196.5 Q 137.1 186.4 129.5 180 Q 121 172.8 105 174 L 105 301.5 Q 106.3 307.3 110.5 310 Q 117.1 313.1 127 312 Q 129.2 317.6 123.5 316 L 122.5 315 L 54.5 315 L 51 316 L 51 312 L 60.5 312 Q 67.9 310.9 71 305.5 L 73 296.5 L 73 174 Q 50.1 172.3 42 186.5 L 35 200.5 L 31 214.5 L 31 218.5 L 29.5 220 Q 24.3 221.8 26 216.5 L 27 215.5 L 27 191.5 L 26 190.5 L 26 172.5 L 25 170 Z " /><path fill="rgb(0,0,0)" stroke="rgb(0,0,0)" stroke-width="1" opacity="1" d="M 157 170 L 164.5 170 L 165.5 171 L 202.5 171 L 203.5 170 L 219 170 Q 220.8 174.5 215.5 173 L 206.5 175 L 204 177.5 L 203 179.5 L 208 191.5 L 236.5 245 L 259 200.5 L 261 193.5 L 261 182.5 L 257.5 177 Q 252.3 173 244 173 L 244.5 170 L 285 170 L 285 174 L 283.5 174 L 274 182.5 Q 255.8 211.8 241 244.5 L 241 303.5 L 244.5 310 Q 249.1 312.8 256 312 L 255.5 316 L 254.5 315 L 194.5 315 L 193 315.5 Q 191.2 309.4 198.5 312 L 204.5 310 L 207 307.5 L 209 297.5 L 209 259.5 L 172 190.5 L 163 176 L 157 174 L 157 170 Z " /><path fill="rgb(0,0,0)" stroke="rgb(0,0,0)" stroke-width="1" opacity="1" d="M 451.5 287 L 461.5 289 L 466 292.5 Q 471.1 296.9 469 308.5 L 464.5 315 Q 458.7 320.2 445.5 318 L 437 311.5 Q 434 307.5 435 299.5 Q 436.5 293 441.5 290 L 451.5 287 Z " /></svg>